<svg height="32" viewBox="0 0 32 32" width="32" xmlns="http://www.w3.org/2000/svg"><path d="m10.6542969 21.3271484v-13.97460934c0-.71777343.5126953-1.02539062 1.0986328-1.14257812l11.0742187-2.24121094c1.0107422-.20507812 1.6259766-.08789062 1.6259766 1.08398438v17.13867192c0 3.2226562-2.5634766 3.9111328-4.1748047 3.9111328-1.5966797 0-2.9150391-1.2304688-2.9150391-2.7978516 0-1.8896484 1.4208985-2.6806641 3.2226563-3.046875l1.6259766-.3662109c.6591797-.131836.8642578-.6152344.8642578-1.1279297l.0146484-8.203125c0-.57128909-.2636719-.77636721-.9082031-.62988284l-9.3896484 1.90429684c-.5419922.0878907-.703125.2490235-.703125.8935547v11.9238282c0 3.2373046-2.60742192 3.984375-4.21875005 3.984375-1.62597656 0-2.87109375-1.2451172-2.87109375-2.7978516 0-1.9189453 1.43554688-2.7099609 3.14941406-3.1201172l1.74316406-.3515625c.54199218-.1318359.76171878-.5566406.76171878-1.0400391z"/></svg>